<?xml version="1.0" encoding="UTF-8"?>
<svg version="1.1" xmlns="http://www.w3.org/2000/svg" width="200" height="47">
<path d="M0 0 C3.12090272 2.13768027 5.04908572 4.41866349 7.20703125 7.51171875 C7.86703125 5.53171875 8.52703125 3.55171875 9.20703125 1.51171875 C19.87974681 1.1386918 19.87974681 1.1386918 24.20703125 3.51171875 C24.70203125 4.00671875 24.70203125 4.00671875 25.20703125 4.51171875 C25.53703125 3.52171875 25.86703125 2.53171875 26.20703125 1.51171875 C28.18703125 1.51171875 30.16703125 1.51171875 32.20703125 1.51171875 C32.20703125 5.47171875 32.20703125 9.43171875 32.20703125 13.51171875 C30.22703125 13.51171875 28.24703125 13.51171875 26.20703125 13.51171875 C25.71203125 12.52171875 25.71203125 12.52171875 25.20703125 11.51171875 C24.21703125 12.17171875 23.22703125 12.83171875 22.20703125 13.51171875 C19.0703125 13.70703125 19.0703125 13.70703125 15.51953125 13.63671875 C14.34003906 13.61867188 13.16054688 13.600625 11.9453125 13.58203125 C11.04167969 13.55882813 10.13804688 13.535625 9.20703125 13.51171875 C9.70203125 18.95671875 9.70203125 18.95671875 10.20703125 24.51171875 C10.86703125 24.18171875 11.52703125 23.85171875 12.20703125 23.51171875 C17.16390678 23.13761494 20.24153997 23.38739228 24.20703125 26.51171875 C24.20703125 27.17171875 24.20703125 27.83171875 24.20703125 28.51171875 C21.23703125 28.51171875 18.26703125 28.51171875 15.20703125 28.51171875 C15.20703125 29.50171875 15.20703125 30.49171875 15.20703125 31.51171875 C16.19703125 31.18171875 17.18703125 30.85171875 18.20703125 30.51171875 C20.5400295 30.47217641 22.87411314 30.46770143 25.20703125 30.51171875 C25.20703125 28.20171875 25.20703125 25.89171875 25.20703125 23.51171875 C26.8731503 23.46899775 28.5408601 23.47108043 30.20703125 23.51171875 C31.20703125 24.51171875 31.20703125 24.51171875 31.3046875 26.359375 C31.27213542 28.41015625 31.23958333 30.4609375 31.20703125 32.51171875 C33.84703125 32.51171875 36.48703125 32.51171875 39.20703125 32.51171875 C39.53703125 29.54171875 39.86703125 26.57171875 40.20703125 23.51171875 C41.85703125 23.51171875 43.50703125 23.51171875 45.20703125 23.51171875 C45.20703125 27.47171875 45.20703125 31.43171875 45.20703125 35.51171875 C38.60703125 35.51171875 32.00703125 35.51171875 25.20703125 35.51171875 C24.87703125 34.85171875 24.54703125 34.19171875 24.20703125 33.51171875 C23.54703125 34.17171875 22.88703125 34.83171875 22.20703125 35.51171875 C13.42303125 37.23971875 13.42303125 37.23971875 9.20703125 34.51171875 C7.89453125 31.88671875 7.89453125 31.88671875 7.20703125 29.51171875 C6.77132812 30.05441406 6.335625 30.59710938 5.88671875 31.15625 C0.4690818 37.66445024 -4.4275694 40.97517881 -12.91796875 41.82421875 C-19.70699015 41.27671702 -25.67431106 39.24621196 -30.29296875 34.07421875 C-34.44661736 28.55162116 -36.36757711 22.37308787 -35.546875 15.4296875 C-33.9288037 7.94073805 -29.99670339 2.97840769 -23.79296875 -1.48828125 C-15.65586256 -5.37190011 -7.68708423 -4.22486992 0 0 Z M-9.79296875 -0.48828125 C-9.79296875 0.17171875 -9.79296875 0.83171875 -9.79296875 1.51171875 C-8.47296875 1.18171875 -7.15296875 0.85171875 -5.79296875 0.51171875 C-7.11296875 0.18171875 -8.43296875 -0.14828125 -9.79296875 -0.48828125 Z M-25.79296875 3.51171875 C-25.79296875 4.17171875 -25.79296875 4.83171875 -25.79296875 5.51171875 C-22.82296875 6.00671875 -22.82296875 6.00671875 -19.79296875 6.51171875 C-19.13296875 4.53171875 -18.47296875 2.55171875 -17.79296875 0.51171875 C-21.39154829 0.51171875 -22.88747993 1.4700239 -25.79296875 3.51171875 Z M-13.79296875 1.51171875 C-15.11296875 3.16171875 -16.43296875 4.81171875 -17.79296875 6.51171875 C-14.82296875 6.51171875 -11.85296875 6.51171875 -8.79296875 6.51171875 C-9.45296875 5.19171875 -10.11296875 3.87171875 -10.79296875 2.51171875 C-11.78296875 2.18171875 -12.77296875 1.85171875 -13.79296875 1.51171875 Z M-4.79296875 1.51171875 C-4.79296875 2.17171875 -4.79296875 2.83171875 -4.79296875 3.51171875 C-4.13296875 3.18171875 -3.47296875 2.85171875 -2.79296875 2.51171875 C-3.45296875 2.18171875 -4.11296875 1.85171875 -4.79296875 1.51171875 Z M-6.79296875 3.51171875 C-6.46296875 4.50171875 -6.13296875 5.49171875 -5.79296875 6.51171875 C-5.13296875 6.51171875 -4.47296875 6.51171875 -3.79296875 6.51171875 C-3.79296875 5.85171875 -3.79296875 5.19171875 -3.79296875 4.51171875 C-4.78296875 4.18171875 -5.77296875 3.85171875 -6.79296875 3.51171875 Z M14.20703125 5.51171875 C14.20703125 7.16171875 14.20703125 8.81171875 14.20703125 10.51171875 C15.85703125 10.18171875 17.50703125 9.85171875 19.20703125 9.51171875 C18.87703125 8.19171875 18.54703125 6.87171875 18.20703125 5.51171875 C16.88703125 5.51171875 15.56703125 5.51171875 14.20703125 5.51171875 Z M-26.79296875 6.51171875 C-27.12296875 7.17171875 -27.45296875 7.83171875 -27.79296875 8.51171875 C-27.13296875 8.51171875 -26.47296875 8.51171875 -25.79296875 8.51171875 C-26.12296875 7.85171875 -26.45296875 7.19171875 -26.79296875 6.51171875 Z M-17.79296875 7.51171875 C-17.13296875 8.83171875 -16.47296875 10.15171875 -15.79296875 11.51171875 C-11.78950852 11.95462798 -11.78950852 11.95462798 -9.54296875 9.51171875 C-8.96546875 8.85171875 -8.38796875 8.19171875 -7.79296875 7.51171875 C-11.09296875 7.51171875 -14.39296875 7.51171875 -17.79296875 7.51171875 Z M-23.79296875 8.51171875 C-24.78296875 9.17171875 -25.77296875 9.83171875 -26.79296875 10.51171875 C-26.79296875 11.17171875 -26.79296875 11.83171875 -26.79296875 12.51171875 C-25.47296875 11.85171875 -24.15296875 11.19171875 -22.79296875 10.51171875 C-23.12296875 9.85171875 -23.45296875 9.19171875 -23.79296875 8.51171875 Z M-5.79296875 8.51171875 C-6.12296875 9.17171875 -6.45296875 9.83171875 -6.79296875 10.51171875 C-6.13296875 10.51171875 -5.47296875 10.51171875 -4.79296875 10.51171875 C-5.12296875 9.85171875 -5.45296875 9.19171875 -5.79296875 8.51171875 Z M-3.79296875 8.51171875 C-3.13296875 9.17171875 -2.47296875 9.83171875 -1.79296875 10.51171875 C-1.79296875 9.85171875 -1.79296875 9.19171875 -1.79296875 8.51171875 C-2.45296875 8.51171875 -3.11296875 8.51171875 -3.79296875 8.51171875 Z M-21.79296875 9.51171875 C-24.29274418 12.84475266 -24.79296875 14.24475477 -24.79296875 18.51171875 C-21.80144293 17.73692139 -21.80144293 17.73692139 -18.79296875 16.51171875 C-17.74846964 13.37822143 -17.8587323 12.52203619 -18.79296875 9.51171875 C-19.78296875 9.51171875 -20.77296875 9.51171875 -21.79296875 9.51171875 Z M-8.79296875 10.51171875 C-9.45296875 11.17171875 -10.11296875 11.83171875 -10.79296875 12.51171875 C-9.80296875 12.51171875 -8.81296875 12.51171875 -7.79296875 12.51171875 C-8.12296875 11.85171875 -8.45296875 11.19171875 -8.79296875 10.51171875 Z M-4.79296875 12.51171875 C-4.46296875 13.50171875 -4.13296875 14.49171875 -3.79296875 15.51171875 C-3.46296875 14.52171875 -3.13296875 13.53171875 -2.79296875 12.51171875 C-3.45296875 12.51171875 -4.11296875 12.51171875 -4.79296875 12.51171875 Z M-7.79296875 12.51171875 C-9.77296875 13.50171875 -9.77296875 13.50171875 -11.79296875 14.51171875 C-11.13296875 16.49171875 -10.47296875 18.47171875 -9.79296875 20.51171875 C-7.79313341 19.72053971 -7.79313341 19.72053971 -5.79296875 18.51171875 C-5.46296875 17.52171875 -5.13296875 16.53171875 -4.79296875 15.51171875 C-5.78296875 14.52171875 -6.77296875 13.53171875 -7.79296875 12.51171875 Z M0.20703125 13.51171875 C1.20703125 15.51171875 1.20703125 15.51171875 1.20703125 15.51171875 Z M-15.79296875 15.51171875 C-14.3953697 19.05690759 -14.3953697 19.05690759 -12.79296875 22.51171875 C-12.13296875 22.51171875 -11.47296875 22.51171875 -10.79296875 22.51171875 C-10.98125647 20.06691796 -10.98125647 20.06691796 -11.79296875 17.51171875 C-13.76055148 16.15151724 -13.76055148 16.15151724 -15.79296875 15.51171875 Z M-17.79296875 17.51171875 C-19.43852574 18.73980966 -19.43852574 18.73980966 -20.79296875 20.51171875 C-20.56539144 22.67471086 -20.56539144 22.67471086 -19.79296875 24.51171875 C-17.81296875 24.18171875 -15.83296875 23.85171875 -13.79296875 23.51171875 C-14.91151461 19.78557722 -14.91151461 19.78557722 -17.79296875 17.51171875 Z M1.20703125 18.51171875 C1.86703125 19.17171875 2.52703125 19.83171875 3.20703125 20.51171875 C3.20703125 19.85171875 3.20703125 19.19171875 3.20703125 18.51171875 C2.54703125 18.51171875 1.88703125 18.51171875 1.20703125 18.51171875 Z M-7.79296875 21.51171875 C-7.46296875 23.82171875 -7.13296875 26.13171875 -6.79296875 28.51171875 C-3.63757837 27.78780343 -3.63757837 27.78780343 -2.10546875 25.13671875 C-0.56936195 22.55364502 -0.56936195 22.55364502 -0.79296875 19.51171875 C-3.89848541 19.51171875 -5.14557959 20.05109025 -7.79296875 21.51171875 Z M0.20703125 21.51171875 C-1.27796875 24.97671875 -1.27796875 24.97671875 -2.79296875 28.51171875 C-0.8176013 28.16385167 -0.8176013 28.16385167 1.20703125 27.51171875 C1.53703125 26.85171875 1.86703125 26.19171875 2.20703125 25.51171875 C1.31539548 23.39488034 1.31539548 23.39488034 0.20703125 21.51171875 Z M2.20703125 21.51171875 C3.20703125 23.51171875 3.20703125 23.51171875 3.20703125 23.51171875 Z M5.20703125 21.51171875 C4.87703125 22.83171875 4.54703125 24.15171875 4.20703125 25.51171875 C4.86703125 25.18171875 5.52703125 24.85171875 6.20703125 24.51171875 C5.87703125 23.52171875 5.54703125 22.53171875 5.20703125 21.51171875 Z M-22.79296875 22.51171875 C-21.79296875 25.51171875 -21.79296875 25.51171875 -21.79296875 25.51171875 Z M-10.79296875 23.51171875 C-10.13296875 24.17171875 -9.47296875 24.83171875 -8.79296875 25.51171875 C-8.79296875 24.85171875 -8.79296875 24.19171875 -8.79296875 23.51171875 C-9.45296875 23.51171875 -10.11296875 23.51171875 -10.79296875 23.51171875 Z M-17.79296875 25.51171875 C-18.12296875 26.17171875 -18.45296875 26.83171875 -18.79296875 27.51171875 C-17.80296875 27.18171875 -16.81296875 26.85171875 -15.79296875 26.51171875 C-16.45296875 26.18171875 -17.11296875 25.85171875 -17.79296875 25.51171875 Z M-16.04296875 26.82421875 C-16.62046875 27.38109375 -17.19796875 27.93796875 -17.79296875 28.51171875 C-17.79296875 29.17171875 -17.79296875 29.83171875 -17.79296875 30.51171875 C-14.49296875 30.51171875 -11.19296875 30.51171875 -7.79296875 30.51171875 C-9.28255208 26.53255208 -9.28255208 26.53255208 -11.66796875 25.57421875 C-13.92086599 25.32042399 -13.92086599 25.32042399 -16.04296875 26.82421875 Z M4.20703125 26.51171875 C3.87703125 27.83171875 3.54703125 29.15171875 3.20703125 30.51171875 C4.19703125 29.85171875 5.18703125 29.19171875 6.20703125 28.51171875 C6.20703125 27.85171875 6.20703125 27.19171875 6.20703125 26.51171875 C5.54703125 26.51171875 4.88703125 26.51171875 4.20703125 26.51171875 Z M-21.79296875 31.51171875 C-21.13296875 32.17171875 -20.47296875 32.83171875 -19.79296875 33.51171875 C-19.79296875 32.85171875 -19.79296875 32.19171875 -19.79296875 31.51171875 C-20.45296875 31.51171875 -21.11296875 31.51171875 -21.79296875 31.51171875 Z M-16.79296875 31.51171875 C-16.15355131 34.59222935 -16.15355131 34.59222935 -13.98046875 35.44921875 C-11.57467934 35.76384838 -11.57467934 35.76384838 -9.54296875 33.57421875 C-8.96546875 32.89359375 -8.38796875 32.21296875 -7.79296875 31.51171875 C-10.76296875 31.51171875 -13.73296875 31.51171875 -16.79296875 31.51171875 Z M-5.79296875 31.51171875 C-6.45296875 33.49171875 -7.11296875 35.47171875 -7.79296875 37.51171875 C-2.96854691 36.24225361 -2.96854691 36.24225361 0.20703125 32.51171875 C-0.8594199 31.21538254 -0.8594199 31.21538254 -3.35546875 31.44921875 C-4.15984375 31.46984375 -4.96421875 31.49046875 -5.79296875 31.51171875 Z M-19.79296875 35.51171875 C-20.12296875 36.17171875 -20.45296875 36.83171875 -20.79296875 37.51171875 C-19.47296875 37.84171875 -18.15296875 38.17171875 -16.79296875 38.51171875 C-16.79296875 37.85171875 -16.79296875 37.19171875 -16.79296875 36.51171875 C-17.78296875 36.18171875 -18.77296875 35.85171875 -19.79296875 35.51171875 Z M-13.79296875 37.51171875 C-14.45296875 38.17171875 -15.11296875 38.83171875 -15.79296875 39.51171875 C-14.47296875 39.51171875 -13.15296875 39.51171875 -11.79296875 39.51171875 C-11.79296875 38.85171875 -11.79296875 38.19171875 -11.79296875 37.51171875 C-12.45296875 37.51171875 -13.11296875 37.51171875 -13.79296875 37.51171875 Z " fill="#B4BFB7" transform="translate(36.79296875,4.48828125)"/>
<path d="M0 0 C2.9375 1.375 2.9375 1.375 5 3 C5 3.66 5 4.32 5 5 C2.03 5 -0.94 5 -4 5 C-4 5.99 -4 6.98 -4 8 C-3.01 7.67 -2.02 7.34 -1 7 C1.33299825 6.96045766 3.66708189 6.95598268 6 7 C6 4.69 6 2.38 6 0 C7.66611905 -0.042721 9.33382885 -0.04063832 11 0 C12 1 12 1 12.09765625 2.84765625 C12.06510417 4.8984375 12.03255208 6.94921875 12 9 C14.64 9 17.28 9 20 9 C20.33 6.03 20.66 3.06 21 0 C22.65 0 24.3 0 26 0 C26 3.96 26 7.92 26 12 C19.4 12 12.8 12 6 12 C5.67 11.34 5.34 10.68 5 10 C4.34 10.66 3.68 11.32 3 12 C-2.03161174 12.98982526 -5.35321357 13.53461078 -10 11 C-10.33 10.67 -10.66 10.34 -11 10 C-10.63228438 4.20847902 -10.63228438 4.20847902 -10 2 C-6.27420911 -0.48386059 -4.41288598 -0.3804212 0 0 Z " fill="#ECEFEE" transform="translate(56,28)"/>
<path d="M0 0 C10.82647719 -0.28870606 10.82647719 -0.28870606 15 2 C15.33 2.33 15.66 2.66 16 3 C16.33 2.01 16.66 1.02 17 0 C18.98 0 20.96 0 23 0 C23 3.96 23 7.92 23 12 C21.02 12 19.04 12 17 12 C16.67 11.34 16.34 10.68 16 10 C15.01 10.66 14.02 11.32 13 12 C9.86328125 12.1953125 9.86328125 12.1953125 6.3125 12.125 C5.13300781 12.10695313 3.95351563 12.08890625 2.73828125 12.0703125 C1.83464844 12.04710937 0.93101563 12.02390625 0 12 C0 8.04 0 4.08 0 0 Z M5 4 C5 5.65 5 7.3 5 9 C6.65 8.67 8.3 8.34 10 8 C9.67 6.68 9.34 5.36 9 4 C7.68 4 6.36 4 5 4 Z " fill="#F0F2F0" transform="translate(46,6)"/>
<path d="M0 0 C0.66 0.66 1.32 1.32 2 2 C1.625 5.125 1.625 5.125 1 8 C1.66 8.33 2.32 8.66 3 9 C2.01 9.495 2.01 9.495 1 10 C0.34786708 12.02463255 0.34786708 12.02463255 0 14 C1.4540625 14.37125 1.4540625 14.37125 2.9375 14.75 C6 16 6 16 6.8125 17.875 C6.874375 18.57625 6.93625 19.2775 7 20 C7.185625 20.7425 7.37125 21.485 7.5625 22.25 C7.706875 22.8275 7.85125 23.405 8 24 C8.99 24 9.98 24 11 24 C11.33 23.01 11.66 22.02 12 21 C12.66 21.33 13.32 21.66 14 22 C14.99 21.67 15.98 21.34 17 21 C17 21.66 17 22.32 17 23 C16.34 23 15.68 23 15 23 C15 24.32 15 25.64 15 27 C15.99 26.67 16.98 26.34 18 26 C19.45835684 25.98088296 20.91763996 26.00529986 22.375 26.0625 C28.07844355 26.11796298 31.58232945 24.59958341 36 21 C36.66 21.66 37.32 22.32 38 23 C32.58877878 28.23029893 28.31082519 30.51198205 20.6875 31.375 C13.98351043 30.69323835 8.06996263 28.67996426 3.5 23.5625 C-0.29445109 18.51748334 -1.94002271 13.3575929 -2 7 C-1.53902413 4.53214937 -0.84230424 2.37827078 0 0 Z M20 27 C19.34 27.66 18.68 28.32 18 29 C19.32 29 20.64 29 22 29 C22 28.34 22 27.68 22 27 C21.34 27 20.68 27 20 27 Z " fill="#E4ECE8" transform="translate(3,15)"/>
<path d="M0 0 C6 0 6 0 8.875 2.5 C9.57625 3.325 10.2775 4.15 11 5 C11.33 3.35 11.66 1.7 12 0 C13.65 0 15.3 0 17 0 C17 3.96 17 7.92 17 12 C13.6875 12.25 13.6875 12.25 10 12 C8.0625 10 8.0625 10 7 8 C6.34 9.32 5.68 10.64 5 12 C3.35 12 1.7 12 0 12 C0 8.04 0 4.08 0 0 Z " fill="#F6F7F6" transform="translate(84,28)"/>
<path d="M0 0 C11.11607143 -0.26785714 11.11607143 -0.26785714 16 2 C17.3364486 8.43925234 17.3364486 8.43925234 15.96875 10.71875 C12.96067414 12.67638667 10.34996505 12.28486142 6.8125 12.1875 C5.54019531 12.16042969 4.26789063 12.13335937 2.95703125 12.10546875 C1.98121094 12.07066406 1.00539062 12.03585938 0 12 C0 8.04 0 4.08 0 0 Z M6 4 C5.67 5.32 5.34 6.64 5 8 C7.475 8.495 7.475 8.495 10 9 C10.33 7.68 10.66 6.36 11 5 C9.35 4.67 7.7 4.34 6 4 Z " fill="#F8FAF9" transform="translate(131,28)"/>
<path d="M0 0 C1.98 0 3.96 0 6 0 C6.33 1.32 6.66 2.64 7 4 C7.86625 3.34 8.7325 2.68 9.625 2 C13.21423463 -0.12695385 14.92694798 -0.38790972 19 0 C17.75453595 3.73639216 16.36595047 4.18756513 13 6 C13.99 6.804375 14.98 7.60875 16 8.4375 C16.99 9.283125 17.98 10.12875 19 11 C19 11.33 19 11.66 19 12 C14.45194365 12.17835515 11.1205746 11.99785435 7 10 C6.67 10.66 6.34 11.32 6 12 C4.02 12 2.04 12 0 12 C0 8.04 0 4.08 0 0 Z " fill="#F8FAF9" transform="translate(179,28)"/>
<path d="M0 0 C2.5 1.375 2.5 1.375 4 3 C4 3.66 4 4.32 4 5 C0.7 4.67 -2.6 4.34 -6 4 C-5.67 5.32 -5.34 6.64 -5 8 C-4.34 8.33 -3.68 8.66 -3 9 C-3 8.01 -3 7.02 -3 6 C-0.69 6 1.62 6 4 6 C4 7.98 4 9.96 4 12 C-2.21369499 13.01924246 -6.48351346 13.62926746 -12 10 C-12.48137536 3.6217765 -12.48137536 3.6217765 -10.5 1.0625 C-6.95180062 -0.44548473 -3.79918462 -0.59167629 0 0 Z " fill="#EFF1EE" transform="translate(82,6)"/>
<path d="M0 0 C1.65 1.32 3.3 2.64 5 4 C5.33 3.67 5.66 3.34 6 3 C6.99 3.33 7.98 3.66 9 4 C9.33 3.34 9.66 2.68 10 2 C12 3.625 12 3.625 14 6 C14.25 9.25 14.25 9.25 14 12 C13.34 12 12.68 12 12 12 C11.34 11.01 10.68 10.02 10 9 C9.67 9.66 9.34 10.32 9 11 C5.33657913 12.49867217 1.94949395 13.74720156 -2 13 C-3.6875 10.5625 -3.6875 10.5625 -5 8 C-5.66 7.67 -6.32 7.34 -7 7 C-6.01 8.98 -5.02 10.96 -4 13 C-7 12 -7 12 -9 10 C-10.65 10.66 -12.3 11.32 -14 12 C-14 11.01 -14 10.02 -14 9 C-13.360625 8.79375 -12.72125 8.5875 -12.0625 8.375 C-9.65074923 7.10461791 -9.65074923 7.10461791 -9.25 3.875 C-9.1675 2.92625 -9.085 1.9775 -9 1 C-8.2575 1.391875 -7.515 1.78375 -6.75 2.1875 C-5.8425 2.455625 -4.935 2.72375 -4 3 C-1.67488528 1.73647948 -1.67488528 1.73647948 0 0 Z M0 2 C-0.66 2.66 -1.32 3.32 -2 4 C-1.01 4 -0.02 4 1 4 C0.67 3.34 0.34 2.68 0 2 Z M1 4 C-0.98 4.99 -0.98 4.99 -3 6 C-2.34 7.98 -1.68 9.96 -1 12 C0.99983534 11.20882096 0.99983534 11.20882096 3 10 C3.33 9.01 3.66 8.02 4 7 C3.01 6.01 2.02 5.02 1 4 Z M9 5 C10 7 10 7 10 7 Z " fill="#A5B2A9" transform="translate(28,13)"/>
<path d="M0 0 C1.625 1.9375 1.625 1.9375 2.1875 5.4375 C1.625 8.9375 1.625 8.9375 -0.4375 10.9375 C-4.21755548 12.2243274 -6.54816456 12.02056663 -10.375 10.9375 C-11.875 9.3125 -11.875 9.3125 -12.375 6.9375 C-12 3.1875 -12 3.1875 -11.375 -0.0625 C-7.27655037 -1.42864988 -4.01074557 -1.79428091 0 0 Z " fill="#F7F9F7" transform="translate(176.375,29.0625)"/>
<path d="M0 0 C4.29 0 8.58 0 13 0 C13.33 1.32 13.66 2.64 14 4 C13.01 4.495 13.01 4.495 12 5 C12 5.99 12 6.98 12 8 C12.66 8.33 13.32 8.66 14 9 C14 9.99 14 10.98 14 12 C9.38 12 4.76 12 0 12 C0 8.04 0 4.08 0 0 Z " fill="#F9FBFA" transform="translate(149,28)"/>
<path d="M0 0 C1.65 0 3.3 0 5 0 C5 3.96 5 7.92 5 12 C-1.27 12 -7.54 12 -14 12 C-14 8.37 -14 4.74 -14 1 C-12.35 1 -10.7 1 -9 1 C-9 3.64 -9 6.28 -9 9 C-6.36 9 -3.72 9 -1 9 C-0.67 6.03 -0.34 3.06 0 0 Z " fill="#F2F3F2" transform="translate(77,28)"/>
<path d="M0 0 C2.875 0.25 2.875 0.25 6 1 C7.4375 2.875 7.4375 2.875 8 5 C7.67 5.99 7.34 6.98 7 8 C7 8.33 7 8.66 7 9 C7.66 9.33 8.32 9.66 9 10 C9.309375 10.825 9.61875 11.65 9.9375 12.5 C10.288125 13.325 10.63875 14.15 11 15 C11.99 15.33 12.98 15.66 14 16 C14 17.32 14 18.64 14 20 C13.01 20.33 12.02 20.66 11 21 C11 20.01 11 19.02 11 18 C10.731875 18.639375 10.46375 19.27875 10.1875 19.9375 C9 22 9 22 6 23 C6 21.35 6 19.7 6 18 C4.02 17.01 2.04 16.02 0 15 C0.185625 13.824375 0.37125 12.64875 0.5625 11.4375 C1.08230996 7.38731406 0.7502354 4.00125547 0 0 Z " fill="#A4ADA4" transform="translate(3,14)"/>
<path d="M0 0 C0.66 1.32 1.32 2.64 2 4 C-1.3 4 -4.6 4 -8 4 C-8.33 4.99 -8.66 5.98 -9 7 C-5.7 6.67 -2.4 6.34 1 6 C1 6.99 1 7.98 1 9 C-1.26784125 10.98436109 -2.98732405 11.98257345 -6.04296875 12.03515625 C-11.53506098 11.46493902 -11.53506098 11.46493902 -14 9 C-14.4375 5.5625 -14.4375 5.5625 -14 2 C-10.26627698 -1.85416569 -4.86438815 -1.74888611 0 0 Z " fill="#F7F7F7" transform="translate(124,29)"/>
<path d="M0 0 C2.5703125 0.5390625 2.5703125 0.5390625 4.58984375 2.91015625 C5.18152344 3.92207031 5.77320312 4.93398437 6.3828125 5.9765625 C6.98738281 6.98589844 7.59195313 7.99523437 8.21484375 9.03515625 C9.5703125 11.5390625 9.5703125 11.5390625 9.5703125 12.5390625 C3.3003125 12.5390625 -2.9696875 12.5390625 -9.4296875 12.5390625 C-8.07979393 9.16432858 -7.06912982 6.6449388 -5.1171875 3.7265625 C-4.72917969 3.12199219 -4.34117188 2.51742188 -3.94140625 1.89453125 C-2.4296875 0.5390625 -2.4296875 0.5390625 0 0 Z M-0.4296875 5.5390625 C0.5703125 7.5390625 0.5703125 7.5390625 0.5703125 7.5390625 Z " fill="#F8F8F8" transform="translate(115.4296875,5.4609375)"/>
<path d="M0 0 C0.66 0.66 1.32 1.32 2 2 C1.34 2 0.68 2 0 2 C-0.66 3.65 -1.32 5.3 -2 7 C0.97 7.495 0.97 7.495 4 8 C4.66 6.02 5.32 4.04 6 2 C6.99 2 7.98 2 9 2 C8.125 5.875 8.125 5.875 7 7 C8.423125 6.938125 8.423125 6.938125 9.875 6.875 C13 7 13 7 15 9 C12.03 9 9.06 9 6 9 C5.67 10.32 5.34 11.64 5 13 C5 12.34 5 11.68 5 11 C4.01 11 3.02 11 2 11 C1.82984375 11.63808594 1.6596875 12.27617187 1.484375 12.93359375 C1.24203125 13.75988281 0.9996875 14.58617187 0.75 15.4375 C0.40195312 16.67306641 0.40195312 16.67306641 0.046875 17.93359375 C-1 20 -1 20 -3.109375 20.78515625 C-3.73328125 20.85605469 -4.3571875 20.92695313 -5 21 C-4.34 19.35 -3.68 17.7 -3 16 C-4.93254772 13.9754262 -6.63158688 12.57894208 -9 11 C-7.59928507 5.70841026 -4.14512755 3.22521956 0 0 Z M-3 8 C-3.33 8.66 -3.66 9.32 -4 10 C-3.34 10 -2.68 10 -2 10 C-2.33 9.34 -2.66 8.68 -3 8 Z M0 10 C-0.99 10.66 -1.98 11.32 -3 12 C-3 12.66 -3 13.32 -3 14 C-1.68 13.34 -0.36 12.68 1 12 C0.67 11.34 0.34 10.68 0 10 Z " fill="#B7C4BC" transform="translate(13,3)"/>
<path d="M0 0 C0 0.99 0 1.98 0 3 C-0.99 3.33 -1.98 3.66 -3 4 C-3.99 3.01 -4.98 2.02 -6 1 C-8.36980013 3.95377498 -8.36980013 3.95377498 -8 8 C-8.66 8 -9.32 8 -10 8 C-10.4125 7.030625 -10.825 6.06125 -11.25 5.0625 C-12.64899168 1.87739901 -12.64899168 1.87739901 -15.1875 1.125 C-15.785625 1.08375 -16.38375 1.0425 -17 1 C-17 0.34 -17 -0.32 -17 -1 C-21.455 -0.505 -21.455 -0.505 -26 0 C-24 -4 -24 -4 -22.1640625 -4.7265625 C-13.3583927 -5.83919226 -7.6786861 -4.5745364 0 0 Z M-12 -2 C-12 -1.34 -12 -0.68 -12 0 C-10.68 -0.33 -9.36 -0.66 -8 -1 C-9.32 -1.33 -10.64 -1.66 -12 -2 Z " fill="#C7D5CE" transform="translate(39,6)"/>
<path d="M0 0 C4.62 0 9.24 0 14 0 C14 1.32 14 2.64 14 4 C12.68 4 11.36 4 10 4 C10 6.64 10 9.28 10 12 C8.02 12 6.04 12 4 12 C4 9.36 4 6.72 4 4 C2.68 4 1.36 4 0 4 C0 2.68 0 1.36 0 0 Z " fill="#F4F5F4" transform="translate(94,6)"/>
<path d="M0 0 C0.7425 0.185625 1.485 0.37125 2.25 0.5625 C4.94990963 0.99203108 6.44631077 0.85122974 9 0 C10.5625 1.75 10.5625 1.75 12 4 C11.6875 6.25 11.6875 6.25 11 8 C11.33 8 11.66 8 12 8 C12 10.31 12 12.62 12 15 C8.9789286 12.9859524 7.39332574 11.36720387 6 8 C5.21625 8.20625 4.4325 8.4125 3.625 8.625 C2.75875 8.74875 1.8925 8.8725 1 9 C0.34 8.34 -0.32 7.68 -1 7 C-0.625 3.375 -0.625 3.375 0 0 Z M1 5 C1.66 5.66 2.32 6.32 3 7 C3 6.34 3 5.68 3 5 C2.34 5 1.68 5 1 5 Z " fill="#B9C6BD" transform="translate(32,8)"/>
<path d="M0 0 C0.33 0 0.66 0 1 0 C1.11611395 4.24977046 1.18722349 8.49913337 1.25 12.75 C1.30027344 14.55984375 1.30027344 14.55984375 1.3515625 16.40625 C1.36445312 17.56640625 1.37734375 18.7265625 1.390625 19.921875 C1.41157227 20.99018555 1.43251953 22.05849609 1.45410156 23.15917969 C0.89030816 26.68622273 -0.20204993 27.85070073 -3 30 C-5.359375 30.171875 -5.359375 30.171875 -7.75 29.75 C-8.54921875 29.62109375 -9.3484375 29.4921875 -10.171875 29.359375 C-10.77515625 29.24078125 -11.3784375 29.1221875 -12 29 C-12 28.67 -12 28.34 -12 28 C-10.35 28 -8.7 28 -7 28 C-6.67 26.35 -6.34 24.7 -6 23 C-5.34 24.32 -4.68 25.64 -4 27 C-3.34 26.01 -2.68 25.02 -2 24 C-2.66 23.67 -3.32 23.34 -4 23 C-3.67 22.67 -3.34 22.34 -3 22 C-2.95919217 20.00041636 -2.95745644 17.99954746 -3 16 C-2.34 16 -1.68 16 -1 16 C-1.165 15.071875 -1.33 14.14375 -1.5 13.1875 C-2.28017979 8.21385385 -1.44628889 4.79083195 0 0 Z " fill="#CDD8D0" transform="translate(45,7)"/>
<path d="M0 0 C1.65 0 3.3 0 5 0 C5 2.97 5 5.94 5 9 C7.97 9 10.94 9 14 9 C14 9.99 14 10.98 14 12 C9.38 12 4.76 12 0 12 C0 8.04 0 4.08 0 0 Z " fill="#F8F8F8" transform="translate(126,6)"/>
<path d="M0 0 C4.84455959 2.20207254 4.84455959 2.20207254 7 4 C7.9375 7.75 7.9375 7.75 8 11 C8.763125 10.319375 9.52625 9.63875 10.3125 8.9375 C11.199375 8.298125 12.08625 7.65875 13 7 C13.99 7.33 14.98 7.66 16 8 C12 12 12 12 9.5625 12.4375 C8.716875 12.293125 7.87125 12.14875 7 12 C5.3125 9.5625 5.3125 9.5625 4 7 C3.34 6.67 2.68 6.34 2 6 C2.99 7.98 3.98 9.96 5 12 C2 11 2 11 0 9 C-1.65 9.66 -3.3 10.32 -5 11 C-5 10.01 -5 9.02 -5 8 C-4.0409375 7.690625 -4.0409375 7.690625 -3.0625 7.375 C-0.65074923 6.10461791 -0.65074923 6.10461791 -0.25 2.875 C-0.1675 1.92625 -0.085 0.9775 0 0 Z " fill="#A8B5AD" transform="translate(19,14)"/>
<path d="M0 0 C1.98 0 3.96 0 6 0 C6 3.96 6 7.92 6 12 C4.02 12 2.04 12 0 12 C0 8.04 0 4.08 0 0 Z " fill="#F4F5F5" transform="translate(103,28)"/>
<path d="M0 0 C1.65 0 3.3 0 5 0 C5 3.96 5 7.92 5 12 C3.02 12 1.04 12 -1 12 C-1.02687279 10.18757948 -1.04633715 8.37504767 -1.0625 6.5625 C-1.07410156 5.55316406 -1.08570312 4.54382813 -1.09765625 3.50390625 C-1 1 -1 1 0 0 Z " fill="#F0F2EF" transform="translate(88,6)"/>
<path d="M0 0 C0.66 0.66 1.32 1.32 2 2 C1.625 5.125 1.625 5.125 1 8 C1.66 8.33 2.32 8.66 3 9 C2.01 9.495 2.01 9.495 1 10 C0.34786708 12.02463255 0.34786708 12.02463255 0 14 C1.4540625 14.37125 1.4540625 14.37125 2.9375 14.75 C3.948125 15.1625 4.95875 15.575 6 16 C6.875 18.125 6.875 18.125 7 20 C5.02 20.99 5.02 20.99 3 22 C-0.8162824 17.51087442 -1.56901463 12.77357753 -2 7 C-1.62911402 4.39932964 -0.98302611 2.45756528 0 0 Z " fill="#D1D6CE" transform="translate(3,15)"/>
<path d="M0 0 C0.66 0.66 1.32 1.32 2 2 C1.34 2 0.68 2 0 2 C-0.66 3.65 -1.32 5.3 -2 7 C-1.01 7.33 -0.02 7.66 1 8 C0.34 9.32 -0.32 10.64 -1 12 C-1.66 12 -2.32 12 -3 12 C-3.33 12.66 -3.66 13.32 -4 14 C-5.65 13.01 -7.3 12.02 -9 11 C-7.59928507 5.70841026 -4.14512755 3.22521956 0 0 Z M-3 8 C-3.33 8.66 -3.66 9.32 -4 10 C-3.34 10 -2.68 10 -2 10 C-2.33 9.34 -2.66 8.68 -3 8 Z " fill="#B3BCB4" transform="translate(13,3)"/>
<path d="M0 0 C1.65 0 3.3 0 5 0 C3.68 0.33 2.36 0.66 1 1 C1 4.63 1 8.26 1 12 C0.34 11.34 -0.32 10.68 -1 10 C-1.66 10.66 -2.32 11.32 -3 12 C-5.65537372 12.56520003 -8.29144713 12.73788198 -11 13 C-11.33 11.02 -11.66 9.04 -12 7 C-11.360625 7.185625 -10.72125 7.37125 -10.0625 7.5625 C-9.0415625 7.7790625 -9.0415625 7.7790625 -8 8 C-7.67 7.67 -7.34 7.34 -7 7 C-4.66702567 6.95907063 -2.33294775 6.95758277 0 7 C0 4.69 0 2.38 0 0 Z " fill="#DDDFDD" transform="translate(62,28)"/>
<path d="M0 0 C1.32 0 2.64 0 4 0 C4 2.97 4 5.94 4 9 C6.64 9 9.28 9 12 9 C12 9.66 12 10.32 12 11 C8.04 11 4.08 11 0 11 C0 7.37 0 3.74 0 0 Z " fill="#FDFDFD" transform="translate(63,29)"/>
<path d="M0 0 C0.66 0.66 1.32 1.32 2 2 C1.67 2.33 1.34 2.66 1 3 C2.32 3 3.64 3 5 3 C4.34 5.97 3.68 8.94 3 12 C2.67 11.01 2.34 10.02 2 9 C1.34 9 0.68 9 0 9 C-0.33 8.34 -0.66 7.68 -1 7 C-1.66 8.32 -2.32 9.64 -3 11 C-1.68 10.67 -0.36 10.34 1 10 C0.67 10.99 0.34 11.98 0 13 C-2.9375 14.25 -2.9375 14.25 -6 15 C-6.66 14.67 -7.32 14.34 -8 14 C-8 13.34 -8 12.68 -8 12 C-7.4225 11.46375 -6.845 10.9275 -6.25 10.375 C-3.31396614 7.27585315 -1.75904359 3.85492532 0 0 Z M1 5 C2 7 2 7 2 7 Z " fill="#B1C0B7" transform="translate(38,21)"/>
<path d="M0 0 C1.32 0 2.64 0 4 0 C4 3.63 4 7.26 4 11 C1.69 11 -0.62 11 -3 11 C-2.690625 10.484375 -2.38125 9.96875 -2.0625 9.4375 C-0.70940713 6.33334577 -0.38640576 3.34884993 0 0 Z " fill="#FCFDFD" transform="translate(97,29)"/>
<path d="M0 0 C2.875 0.25 2.875 0.25 6 1 C7.4375 2.875 7.4375 2.875 8 5 C7.67 5.99 7.34 6.98 7 8 C6.65772583 9.33106622 6.32248257 10.66400079 6 12 C4.68 11.67 3.36 11.34 2 11 C0.98617037 7.3791799 0.50102309 3.72188582 0 0 Z " fill="#949B93" transform="translate(3,14)"/>
<path d="M0 0 C1.9375 0.375 1.9375 0.375 4 1 C4.33 1.66 4.66 2.32 5 3 C5.99 3 6.98 3 8 3 C8.33 2.01 8.66 1.02 9 0 C9.66 0.33 10.32 0.66 11 1 C11.99 0.67 12.98 0.34 14 0 C14 0.66 14 1.32 14 2 C13.34 2 12.68 2 12 2 C12 3.32 12 4.64 12 6 C12 6.33 12 6.66 12 7 C9.06552319 7.34934248 6.85632498 7.51495218 4.265625 5.95703125 C2.625 4.625 2.625 4.625 0 2 C0 1.34 0 0.68 0 0 Z " fill="#D1D8D7" transform="translate(6,36)"/>
<path d="M0 0 C0.66 0.33 1.32 0.66 2 1 C2.6328125 3.06640625 2.6328125 3.06640625 3.125 5.5625 C3.29257812 6.38878906 3.46015625 7.21507812 3.6328125 8.06640625 C3.75398438 8.70449219 3.87515625 9.34257813 4 10 C1.625 10.125 1.625 10.125 -1 10 C-3 8 -3 8 -3.3125 5.5625 C-2.95209822 2.60720543 -2.28773145 1.81112073 0 0 Z " fill="#F9FAF8" transform="translate(48,30)"/>
<path d="M0 0 C1.32 0 2.64 0 4 0 C4 3.63 4 7.26 4 11 C2.68 11 1.36 11 0 11 C0 7.37 0 3.74 0 0 Z " fill="#FCFEFB" transform="translate(64,7)"/>
<path d="M0 0 C0.99 0.33 1.98 0.66 3 1 C2.25 3.9375 2.25 3.9375 1 7 C-0.75 7.8125 -0.75 7.8125 -3 8 C-4.03125 8.20625 -5.0625 8.4125 -6.125 8.625 C-9 9 -9 9 -11 8 C-11 7.01 -11 6.02 -11 5 C-9.906875 5.20625 -8.81375 5.4125 -7.6875 5.625 C-3.9161599 6.40346525 -3.9161599 6.40346525 -1 4 C-3.31 3.67 -5.62 3.34 -8 3 C-8 2.67 -8 2.34 -8 2 C-5.36 2 -2.72 2 0 2 C0 1.34 0 0.68 0 0 Z " fill="#BFC7C4" transform="translate(29,33)"/>
<path d="M0 0 C5.70629354 0.42797202 9.41078616 2.84345952 14 6 C13.67 6.66 13.34 7.32 13 8 C12.01 8.33 11.02 8.66 10 9 C7.95880212 7.38405168 5.95927063 5.7143618 4 4 C3.01 3.67 2.02 3.34 1 3 C0.67 2.01 0.34 1.02 0 0 Z " fill="#DDE7E3" transform="translate(26,1)"/>
<path d="M0 0 C2 1.125 2 1.125 4 3 C4.25 6.1875 4.25 6.1875 4 9 C3.34 9 2.68 9 2 9 C1.34 8.01 0.68 7.02 0 6 C-0.33 6.66 -0.66 7.32 -1 8 C-2.65 8 -4.3 8 -6 8 C-5.67 7.34 -5.34 6.68 -5 6 C-4.01 6 -3.02 6 -2 6 C-1.67 5.01 -1.34 4.02 -1 3 C-0.67 2.01 -0.34 1.02 0 0 Z " fill="#96A599" transform="translate(38,16)"/>
<path d="M0 0 C1.65 0.33 3.3 0.66 5 1 C5.33 2.32 5.66 3.64 6 5 C4.02 5.99 4.02 5.99 2 7 C0.4375 5.1875 0.4375 5.1875 -1 3 C-0.67 2.01 -0.34 1.02 0 0 Z " fill="#C0C7C2" transform="translate(4,30)"/>
<path d="M0 0 C0.598125 0.309375 1.19625 0.61875 1.8125 0.9375 C4.08956772 2.10209704 4.08956772 2.10209704 7 3 C7 4.32 7 5.64 7 7 C6.01 7.33 5.02 7.66 4 8 C4 7.01 4 6.02 4 5 C3.34 6.32 2.68 7.64 2 9 C0.50178941 5.62902617 0 3.79557881 0 0 Z " fill="#979F97" transform="translate(10,27)"/>
<path d="M0 0 C0.33 0 0.66 0 1 0 C1 5.94 1 11.88 1 18 C0.34 17.67 -0.32 17.34 -1 17 C-2.18722313 10.58899508 -1.87787307 6.22045456 0 0 Z " fill="#C4CAC2" transform="translate(45,7)"/>
<path d="M0 0 C-0.66 0 -1.32 0 -2 0 C-2 0.66 -2 1.32 -2 2 C-1.01 1.67 -0.02 1.34 1 1 C1.33 1.99 1.66 2.98 2 4 C1.01 4.495 1.01 4.495 0 5 C0 4.34 0 3.68 0 3 C-4.455 3.495 -4.455 3.495 -9 4 C-7 0 -7 0 -5.0625 -0.8125 C-3 -1 -3 -1 0 0 Z " fill="#D7E0DC" transform="translate(22,2)"/>
<path d="M0 0 C0.99 0 1.98 0 3 0 C4.0625 1.8125 4.0625 1.8125 5 4 C4.67 4.99 4.34 5.98 4 7 C3.01 7 2.02 7 1 7 C0.67 4.69 0.34 2.38 0 0 Z " fill="#899588" transform="translate(6,15)"/>
<path d="M0 0 C0.99 0.33 1.98 0.66 3 1 C2.39816251 3.02045442 1.72693904 5.02111039 1 7 C0.01 7.495 0.01 7.495 -1 8 C-0.67 6.35 -0.34 4.7 0 3 C-2.64 3 -5.28 3 -8 3 C-8 2.67 -8 2.34 -8 2 C-5.36 2 -2.72 2 0 2 C0 1.34 0 0.68 0 0 Z " fill="#C7CECB" transform="translate(29,33)"/>
<path d="M0 0 C0.99 0.33 1.98 0.66 3 1 C3 3.31 3 5.62 3 8 C-0.81538462 5.53846154 -0.81538462 5.53846154 -1.75 2.8125 C-1.8325 2.214375 -1.915 1.61625 -2 1 C-1.34 0.67 -0.68 0.34 0 0 Z " fill="#A9B7A8" transform="translate(41,15)"/>
<path d="M0 0 C0.33 0 0.66 0 1 0 C1.33 2.31 1.66 4.62 2 7 C-0.64 6.67 -3.28 6.34 -6 6 C-6 5.67 -6 5.34 -6 5 C-4.35 5 -2.7 5 -1 5 C-0.67 3.35 -0.34 1.7 0 0 Z " fill="#C1CDC7" transform="translate(39,30)"/>
<path d="M0 0 C0.66 0 1.32 0 2 0 C2 2.64 2 5.28 2 8 C0.68 7.67 -0.64 7.34 -2 7 C-1.67 6.030625 -1.34 5.06125 -1 4.0625 C0.05173363 1.37850426 0.05173363 1.37850426 0 0 Z " fill="#C0C8C5" transform="translate(12,32)"/>
<path d="M0 0 C1.875 0.1875 1.875 0.1875 4 1 C5.25 3.5625 5.25 3.5625 6 6 C3.37812506 4.95125002 2.20628639 4.35068687 0.75 1.875 C0.5025 1.25625 0.255 0.6375 0 0 Z " fill="#DDE4E3" transform="translate(6,36)"/>
<path d="M0 0 C0.99 0 1.98 0 3 0 C2.75 1.875 2.75 1.875 2 4 C-0.0625 5.25 -0.0625 5.25 -2 6 C-1.34 4.02 -0.68 2.04 0 0 Z " fill="#BDCBC3" transform="translate(19,5)"/>
</svg>
